<?xml version="1.0" standalone="no"?>
<!DOCTYPE svg PUBLIC "-//W3C//DTD SVG 20010904//EN"
 "http://www.w3.org/TR/2001/REC-SVG-20010904/DTD/svg10.dtd">
<svg version="1.0" xmlns="http://www.w3.org/2000/svg"
 width="1170.000000pt" height="829.000000pt" viewBox="0 0 1170.000000 829.000000"
 preserveAspectRatio="xMidYMid meet">

<g transform="translate(0.000000,829.000000) scale(0.100000,-0.100000)"
fill="#000000" stroke="none">
<path d="M9290 7658 c-25 -5 -59 -13 -75 -18 -17 -6 -53 -12 -80 -16 -28 -3
-61 -10 -75 -15 -28 -10 -169 -25 -361 -38 -69 -5 -134 -13 -145 -19 -10 -5
-41 -20 -67 -32 -96 -44 -227 -203 -227 -274 0 -12 -5 -27 -11 -33 -7 -7 -9
-42 -6 -94 5 -99 19 -165 39 -185 11 -12 19 -9 49 19 20 17 67 59 104 92 37
33 72 65 79 70 6 6 27 22 46 35 19 13 37 27 40 31 18 23 147 109 165 109 33 0
59 -23 51 -46 -4 -10 -50 -50 -102 -89 -53 -38 -109 -82 -125 -96 -17 -15 -51
-44 -77 -65 -145 -119 -342 -341 -342 -385 0 -10 -4 -19 -10 -19 -5 0 -10 -7
-10 -15 0 -11 12 -15 44 -15 40 0 45 3 55 30 5 17 16 37 23 44 7 8 23 27 35
43 70 92 88 99 155 55 73 -47 107 -56 232 -60 120 -3 195 11 237 45 8 7 19 13
23 13 34 0 219 161 232 202 3 10 9 18 14 18 4 0 10 8 14 18 3 9 17 36 30 60
14 23 27 56 31 72 4 16 11 32 16 35 5 4 9 16 9 28 0 12 6 42 14 67 16 47 46
311 46 393 0 51 2 50 -70 35z"/>
<path d="M4860 7578 c-80 -26 -177 -86 -222 -137 -67 -76 -77 -91 -104 -148
-98 -210 -60 -461 94 -620 55 -57 149 -123 175 -123 7 0 18 -5 24 -11 18 -18
201 -41 242 -29 20 5 51 10 69 10 32 0 66 11 140 47 l32 16 0 94 c0 99 -5 108
-43 72 -46 -43 -148 -83 -224 -87 -74 -4 -158 15 -194 45 -8 7 -19 13 -23 13
-15 0 -91 78 -121 125 -33 52 -65 153 -65 204 0 42 26 135 51 188 59 122 221
221 343 210 93 -8 160 -33 237 -88 14 -10 29 -16 33 -12 3 3 6 46 6 94 l0 88
-47 21 c-27 13 -56 27 -67 32 -10 5 -75 11 -145 14 -110 4 -134 1 -191 -18z"/>
<path d="M9741 7593 c-18 -2 -51 -15 -72 -29 -21 -13 -43 -24 -47 -24 -5 0
-18 -12 -28 -26 -10 -14 -24 -32 -31 -39 -45 -48 -59 -197 -23 -263 11 -20 25
-44 32 -52 23 -28 92 -76 138 -97 25 -12 72 -34 105 -49 112 -51 165 -108 165
-178 0 -69 -61 -150 -128 -171 -77 -23 -180 38 -201 118 -15 62 -26 68 -96 57
-81 -13 -88 -22 -71 -88 8 -29 26 -72 39 -95 27 -45 92 -107 112 -107 7 0 18
-7 25 -15 7 -8 27 -15 44 -15 17 0 47 -4 66 -10 23 -7 55 -6 100 1 132 23 220
99 264 228 37 107 2 250 -79 324 -36 33 -89 63 -235 131 -85 40 -99 50 -124
88 -34 52 10 128 88 156 53 19 117 -1 168 -52 l40 -38 55 28 c80 42 81 51 21
118 -69 78 -113 99 -213 102 -44 1 -95 0 -114 -3z"/>
<path d="M1447 7584 c-4 -4 -7 -245 -7 -536 l0 -528 64 0 c104 0 96 -20 96
244 0 167 3 235 12 244 18 18 412 17 427 -1 7 -9 12 -96 13 -248 l3 -234 69
-3 c38 -2 73 1 78 6 9 9 13 1036 3 1052 -8 13 -111 13 -136 0 -18 -10 -19 -23
-19 -198 0 -133 -4 -192 -12 -200 -18 -18 -411 -17 -427 1 -7 9 -12 85 -13
208 l-3 194 -70 3 c-39 1 -74 0 -78 -4z"/>
<path d="M2495 7578 c-8 -21 1 -769 10 -808 10 -44 66 -130 111 -170 124 -108
339 -125 476 -37 63 40 120 104 151 167 21 43 22 60 25 429 2 212 1 395 -3
408 -5 21 -11 23 -70 23 -51 0 -66 -4 -74 -17 -5 -10 -11 -180 -13 -378 -4
-397 -3 -391 -72 -463 -47 -51 -83 -66 -156 -66 -73 0 -109 15 -157 66 -66 70
-67 74 -73 483 l-5 370 -73 3 c-53 2 -74 -1 -77 -10z"/>
<path d="M6521 7576 c-8 -9 -10 -157 -9 -532 l3 -519 215 -3 c118 -1 225 0
238 3 20 5 22 11 22 70 0 40 -5 67 -12 72 -7 4 -76 10 -153 13 l-140 5 -5 450
c-3 248 -7 451 -8 453 -1 1 -33 2 -71 2 -46 0 -72 -5 -80 -14z"/>
<path d="M7131 7568 c-11 -29 -14 -972 -3 -1013 8 -30 9 -30 83 -30 l74 0 0
530 0 530 -73 3 c-67 3 -73 1 -81 -20z"/>
<path d="M7431 7576 c-7 -9 -11 -40 -9 -78 l3 -63 112 -3 c76 -2 114 -7 122
-16 7 -9 12 -154 13 -452 l3 -439 54 -3 c30 -2 65 -1 78 3 l23 5 0 438 c0 327
3 441 12 450 8 8 49 12 119 12 102 0 107 1 113 23 9 33 7 82 -4 111 l-10 26
-309 0 c-254 0 -311 -3 -320 -14z"/>
<path d="M3874 7532 l-100 -3 -18 -42 c-10 -23 -23 -58 -31 -77 -7 -19 -20
-55 -30 -80 -9 -25 -23 -58 -31 -73 -8 -16 -14 -35 -14 -42 0 -7 -6 -26 -14
-42 -24 -46 -46 -100 -46 -112 0 -6 -4 -19 -9 -29 -19 -35 -41 -85 -41 -95 0
-5 -7 -25 -16 -45 -9 -21 -22 -52 -30 -70 -8 -18 -14 -37 -14 -43 0 -10 -33
-89 -49 -119 -5 -9 -12 -30 -15 -48 -4 -17 -12 -34 -17 -37 -12 -8 -12 -42 1
-47 5 -1 230 -2 499 0 l490 2 -10 33 c-11 33 -13 37 -48 119 -12 26 -21 52
-21 58 0 5 -4 18 -10 28 -17 31 -50 111 -50 122 0 5 -4 18 -10 28 -5 9 -16 35
-25 57 -9 22 -23 53 -31 68 -8 16 -14 33 -14 39 0 5 -6 24 -14 41 -7 18 -28
68 -46 112 -18 44 -39 94 -46 112 -8 17 -14 36 -14 41 0 6 -6 23 -14 39 -8 15
-23 45 -33 66 -10 21 -20 39 -23 40 -3 1 -50 1 -106 -1z m41 -333 c7 -19 24
-65 38 -104 15 -38 36 -95 47 -125 12 -30 25 -66 30 -80 5 -14 18 -50 30 -80
12 -30 24 -64 27 -76 9 -40 -13 -45 -213 -42 l-189 3 -3 24 c-2 13 1 33 6 45
6 12 13 30 16 41 5 23 32 100 45 130 4 11 16 37 25 58 9 21 16 44 16 52 0 13
19 64 40 106 5 9 13 35 20 57 9 36 13 40 31 33 12 -4 27 -23 34 -42z"/>
<path d="M5722 7442 c-18 -48 -37 -96 -42 -107 -5 -11 -19 -45 -30 -75 -11
-30 -24 -64 -29 -75 -5 -11 -17 -42 -26 -70 -22 -62 -42 -111 -61 -148 -8 -16
-14 -36 -14 -46 0 -9 -7 -26 -15 -37 -8 -10 -15 -27 -15 -36 0 -9 -6 -29 -14
-45 -8 -15 -22 -48 -32 -73 -9 -25 -23 -59 -30 -77 -8 -17 -14 -37 -14 -45 0
-8 -4 -18 -9 -23 -5 -6 -12 -20 -16 -32 l-6 -23 501 0 500 0 -7 28 c-3 15 -15
47 -25 72 -27 63 -33 79 -53 130 -9 25 -23 59 -30 75 -7 17 -20 50 -30 75 -10
25 -23 59 -30 75 -29 68 -35 82 -56 135 -12 30 -28 69 -35 87 -8 17 -14 36
-14 41 0 6 -6 23 -14 39 -23 44 -46 100 -46 110 0 6 -6 23 -14 39 -7 16 -20
44 -27 62 l-14 32 -110 0 -110 0 -33 -88z m174 -235 c6 -30 11 -43 48 -129 9
-20 16 -40 16 -46 0 -5 7 -23 15 -38 8 -16 15 -37 15 -46 0 -9 4 -19 9 -23 5
-3 12 -19 16 -36 4 -17 13 -42 21 -57 8 -15 14 -34 14 -43 0 -8 5 -20 11 -26
6 -6 9 -23 7 -39 l-3 -29 -200 0 c-188 0 -200 1 -203 19 -2 10 1 28 6 40 15
31 70 187 78 219 3 15 10 30 15 33 5 3 9 13 9 22 0 9 7 30 15 46 8 15 15 36
15 45 0 10 7 26 15 37 8 10 15 27 15 37 1 59 53 70 66 14z"/>
<path d="M7505 6327 c-3 -7 -4 -149 -3 -317 l3 -305 51 -3 51 -3 6 131 c5 123
7 134 33 167 46 61 128 78 139 29 3 -11 6 -88 8 -171 l2 -150 50 0 50 0 3 166
c3 188 -5 220 -62 264 -51 39 -92 42 -156 11 -29 -14 -56 -24 -59 -21 -2 3 -6
47 -8 98 -2 50 -6 98 -8 105 -6 16 -94 16 -100 -1z"/>
<path d="M3725 6312 c-6 -4 -21 -41 -34 -82 -12 -41 -26 -84 -30 -95 -17 -45
-41 -123 -41 -135 0 -7 -6 -26 -14 -43 -8 -18 -16 -43 -19 -57 -5 -27 -21 -72
-45 -132 -22 -56 -12 -70 49 -66 52 3 52 3 64 46 20 67 28 72 115 72 82 0 110
-14 110 -56 0 -11 7 -30 16 -42 12 -17 25 -22 63 -22 56 0 63 4 51 33 -4 12
-23 69 -40 127 -18 58 -45 143 -60 190 -15 47 -37 117 -49 155 -32 99 -44 115
-89 115 -20 0 -42 -4 -47 -8z m72 -287 c9 -22 16 -53 17 -70 1 -27 -2 -30 -34
-33 -56 -4 -66 8 -51 60 30 98 44 107 68 43z"/>
<path d="M5918 6278 c-13 -10 -18 -31 -20 -83 l-3 -70 -35 -3 c-45 -5 -60 -18
-60 -51 0 -36 17 -51 56 -51 39 0 44 -11 44 -93 0 -79 22 -163 51 -194 28 -29
120 -57 157 -48 92 22 100 26 106 50 4 14 3 37 0 51 -5 21 -11 24 -28 19 -37
-12 -100 -20 -124 -17 -33 5 -52 51 -52 124 0 108 -1 107 98 110 99 3 119 17
92 66 -15 26 -20 27 -97 30 l-82 3 -6 32 c-3 18 -6 55 -7 82 -3 49 -3 50 -38
53 -19 2 -43 -3 -52 -10z"/>
<path d="M4906 6145 c-44 -22 -51 -23 -66 -10 -20 18 -81 20 -98 3 -17 -17
-17 -409 0 -426 18 -18 95 -15 102 4 3 9 6 67 6 130 0 110 1 117 27 151 33 43
91 72 104 51 5 -7 9 -27 9 -45 0 -29 4 -33 37 -39 58 -11 68 2 68 91 0 69 -2
79 -24 96 -33 27 -103 24 -165 -6z"/>
<path d="M5363 6145 c-95 -45 -147 -155 -123 -265 31 -143 139 -220 266 -190
124 30 191 150 163 292 -14 71 -68 138 -136 168 -59 26 -106 25 -170 -5z m132
-89 c73 -31 88 -176 26 -248 -21 -25 -111 -25 -133 0 -59 68 -44 212 25 246
39 19 40 19 82 2z"/>
<path d="M6513 6151 c-47 -26 -93 -64 -93 -77 0 -6 -6 -17 -13 -23 -8 -6 -20
-36 -27 -66 -17 -71 0 -152 44 -210 41 -54 52 -62 114 -82 46 -15 60 -15 120
-3 94 18 112 32 112 86 0 39 -3 44 -22 44 -13 0 -32 -7 -42 -15 -13 -10 -44
-15 -91 -15 -78 0 -100 14 -111 69 -5 26 -3 29 28 35 18 3 74 4 125 2 121 -6
128 -1 119 87 -9 84 -45 137 -112 166 -56 25 -108 26 -151 2z m111 -92 c24
-11 40 -44 30 -61 -7 -10 -115 -10 -132 0 -19 13 -5 38 31 56 39 19 40 19 71
5z"/>
<path d="M7100 6151 c-56 -23 -114 -78 -136 -128 -18 -44 -22 -159 -5 -176 6
-6 11 -19 11 -28 0 -9 20 -37 44 -62 61 -63 133 -84 230 -68 82 14 96 23 96
65 0 51 -13 63 -53 48 -53 -19 -140 -15 -169 8 -84 66 -67 210 30 247 40 15
47 15 102 0 86 -24 90 -23 90 21 0 49 -7 57 -63 76 -61 21 -120 20 -177 -3z"/>
<path d="M4280 6147 c-71 -24 -123 -89 -150 -189 -19 -72 -2 -169 39 -215 42
-48 98 -67 152 -53 24 7 50 17 56 22 7 6 19 8 28 5 20 -8 1 -61 -30 -81 -36
-23 -112 -20 -181 8 -32 13 -62 22 -66 19 -11 -6 -10 -61 2 -83 17 -32 71 -52
155 -57 70 -5 86 -2 129 18 27 13 63 41 80 62 l31 39 3 241 c1 141 -2 248 -7
257 -13 19 -191 24 -241 7z m134 -103 c21 -21 21 -115 0 -156 -31 -60 -90
-104 -128 -94 -64 16 -58 189 7 236 45 31 98 38 121 14z"/>
<path d="M3275 3757 c-3 -7 -4 -127 -3 -267 l3 -255 135 -6 c191 -8 4431 -10
4688 -2 l212 6 0 269 0 268 -2515 0 c-2022 0 -2517 -2 -2520 -13z"/>
<path d="M3410 2870 l-135 -5 0 -270 0 -270 150 -6 c194 -8 4498 -8 4715 0
l165 6 0 270 0 270 -160 6 c-196 8 -4547 7 -4735 -1z"/>
<path d="M3530 1940 c-8 -5 -70 -10 -138 -10 l-122 0 2 -267 3 -268 2518 -3
2517 -2 0 269 0 270 -147 6 c-264 11 -4617 16 -4633 5z"/>
</g>
</svg>
